<?xml version="1.0" standalone="no"?><!DOCTYPE svg PUBLIC "-//W3C//DTD SVG 1.1//EN" "http://www.w3.org/Graphics/SVG/1.1/DTD/svg11.dtd"><svg class="icon" width="200px" height="200.00px" viewBox="0 0 1024 1024" version="1.1" xmlns="http://www.w3.org/2000/svg"><path fill="#ffffff" d="M149.333333 265.481481c-11.757037 0-21.333333 9.576296-21.333333 21.333334s9.576296 21.333333 21.333333 21.333333 21.333333-9.576296 21.333334-21.333333-9.576296-21.333333-21.333334-21.333334zM874.666667 308.148148h-568.888889c-11.757037 0-21.333333-9.576296-21.333334-21.333333s9.576296-21.333333 21.333334-21.333334h568.888889c11.757037 0 21.333333 9.576296 21.333333 21.333334S886.423704 308.148148 874.666667 308.148148zM149.333333 490.666667c-11.757037 0-21.333333 9.576296-21.333333 21.333333s9.576296 21.333333 21.333333 21.333333S170.666667 523.757037 170.666667 512s-9.576296-21.333333-21.333334-21.333333zM874.666667 533.333333h-568.888889c-11.757037 0-21.333333-9.576296-21.333334-21.333333s9.576296-21.333333 21.333334-21.333333h568.888889c11.757037 0 21.333333 9.576296 21.333333 21.333333s-9.576296 21.333333-21.333333 21.333333zM149.333333 715.851852c-11.757037 0-21.333333 9.576296-21.333333 21.333333s9.576296 21.333333 21.333333 21.333334 21.333333-9.576296 21.333334-21.333334-9.576296-21.333333-21.333334-21.333333zM874.666667 758.518519h-568.888889c-11.757037 0-21.333333-9.576296-21.333334-21.333334s9.576296-21.333333 21.333334-21.333333h568.888889c11.757037 0 21.333333 9.576296 21.333333 21.333333S886.423704 758.518519 874.666667 758.518519z" /></svg>