<?xml version="1.0" standalone="no"?><!DOCTYPE svg PUBLIC "-//W3C//DTD SVG 1.1//EN" "http://www.w3.org/Graphics/SVG/1.1/DTD/svg11.dtd"><svg class="icon" width="200px" height="200.00px" viewBox="0 0 1024 1024" version="1.1" xmlns="http://www.w3.org/2000/svg"><path fill="#ffffff" d="M768 576.2H336.7c-8.9 0-16.2 7.3-16.2 16.1 0 9 7.3 16.2 16.2 16.2H768c8.9 0 16.2-7.3 16.2-16.2s-7.3-16.1-16.2-16.1zM768 415.6H336.7c-8.9 0-16.2 7.2-16.2 16.2 0 8.9 7.3 16.2 16.2 16.2H768c8.9 0 16.2-7.3 16.2-16.2 0-9-7.3-16.2-16.2-16.2zM768 736.7H336.7c-8.9 0-16.2 7.3-16.2 16.2s7.3 16.1 16.2 16.1H768c8.9 0 16.2-7.1 16.2-16.1 0-8.9-7.3-16.2-16.2-16.2zM768 255H336.7c-8.9 0-16.2 7.4-16.2 16.3s7.3 16.1 16.2 16.1H768c8.9 0 16.2-7.2 16.2-16.1 0-8.9-7.3-16.3-16.2-16.3zM827.8 64.1H273.1c-48.8 0.2-88 39.4-88.2 88.3v18.4c-1-0.1-2.2-0.1-3.3-0.1-40.7 0-73.7 33.4-73.7 75 0 41.2 33 74.9 73.7 74.9 1.2 0 2.2-0.1 3.3-0.1h0.1v116.7c-1-0.1-2.2-0.1-3.3-0.1-40.7 0-73.7 33.6-73.7 75 0 41.5 33 75 73.7 75 1.2 0 2.2-0.1 3.3-0.1v116.9c-1-0.1-2.2-0.1-3.3-0.1-40.7 0-73.7 33.5-73.7 74.9 0 41.6 33 75 73.7 75 1.2 0 2.2-0.1 3.3-0.1v18.3c0.2 48.8 39.4 88 88.2 88.2h554.6c48.8-0.2 88-39.4 88.2-88.2V152.3c-0.2-48.8-39.4-88-88.2-88.2z m12.1 807.7c0 6.5-5.7 12.3-12.2 12.3H273c-6.4 0-12.2-5.8-12.2-12.3V152.2c0-6.4 5.8-12.3 12.4-12.3h554.5c6.4 0 12.2 5.9 12.2 12.3v719.6z" /></svg>